<svg width="35" height="19" viewBox="0 0 35 19" fill="none" xmlns="http://www.w3.org/2000/svg">
<path d="M31.6109 18.1425H24.8445C23.673 18.1425 22.5819 17.6863 21.7734 16.8594C20.8275 15.8911 20.4036 14.5562 20.6116 13.1935C20.8216 11.8108 21.6753 10.5974 22.8939 9.94989L32.3076 4.94506V4.41111C32.3076 3.48665 31.5658 2.73353 30.6552 2.73353H23.3433C22.5996 2.73353 21.9971 2.12187 21.9971 1.36677C21.9971 0.611657 22.5996 0 23.3433 0H30.6572C33.0513 0 35 1.97842 35 4.40911V5.74201C35 5.75994 35 5.77787 35 5.79779V14.7017C35.002 16.6004 33.4811 18.1425 31.6109 18.1425ZM32.3095 8.02925L24.144 12.3686C23.673 12.6197 23.3551 13.0719 23.2727 13.6079C23.2275 13.8988 23.2236 14.4606 23.6848 14.9328C23.8967 15.15 24.2696 15.409 24.8465 15.409H31.6129C31.9975 15.409 32.3095 15.0922 32.3095 14.7017V8.02925Z" fill="#00C3C5"/>
<path d="M14.6965 18.142H6.71544C5.97169 18.142 5.36923 17.5303 5.36923 16.7752C5.36923 16.0201 5.97169 15.4084 6.71544 15.4084H14.6965C15.2558 15.4084 15.6581 15.1674 15.8956 14.9641C16.29 14.6294 16.4823 14.1313 16.4274 13.5994C16.3685 13.0355 16.0388 12.5454 15.5502 12.2844L7.85953 8.19606C6.64087 7.54854 5.78723 6.33519 5.57725 4.95249C5.36923 3.58971 5.79311 2.25283 6.73899 1.28454C7.5475 0.457703 8.6386 0.00144958 9.81016 0.00144958H17.9541C18.6979 0.00144958 19.3004 0.613107 19.3004 1.36821C19.3004 2.12332 18.6979 2.73498 17.9541 2.73498H9.81016C9.23517 2.73498 8.86035 2.99399 8.64841 3.21116C8.18725 3.68335 8.19313 4.24321 8.23631 4.53608C8.31873 5.07402 8.63468 5.52629 9.10762 5.77733L16.7983 9.86567C18.0856 10.551 18.9471 11.8381 19.1041 13.3105C19.2552 14.745 18.7018 16.1476 17.6225 17.0641C16.7904 17.7694 15.7778 18.142 14.6965 18.142Z" fill="#00C3C5"/>
<path d="M1.34621 18.1425C0.602457 18.1425 0 17.5309 0 16.7757V1.36677C0 0.611657 0.602457 0 1.34621 0C2.08996 0 2.69242 0.611657 2.69242 1.36677V16.7757C2.69242 17.5309 2.08996 18.1425 1.34621 18.1425Z" fill="#00C3C5"/>
</svg>
